# xmcd
#
# Track frame offsets:
#	150
#	15957
#	32633
#	49805
#	63796
#	77333
#	95211
#	113623
#	129280
#	142952
#	160111
#	176614
#	192186
#	207880
#	221216
#	242317
#	256324
#	274014
#	288174
#	305481
#	321916
#	334875
#
# Disc length: 4679 seconds
#
# Revision: 0
# Processed by: cddbd v1.5.2PL0 Copyright (c) Steve Scherf et al.
# Submitted via: dBpowerAMP V4.0
#
DISCID=2b124516
DTITLE=Various Artist - ERG Nu Country Traxx Vol 188 CAN
DYEAR=2010
DGENRE=Country
TTITLE0=Lady Antebellum - American Honey
TTITLE1=Taylor Swift - Fearless
TTITLE2=Rascal Flatts - Unstoppable
TTITLE3=Margaret Durante - Use Somebody
TTITLE4=Band Perry, The - Hip To My Heart
TTITLE5=Terri Clark - A Million Ways To Run
TTITLE6=Craig Morgan - This Ain't Nothin'
TTITLE7=Aaron Lines  - I Haven't Even Heard You Cry
TTITLE8=Jewel - Stay Here Forever
TTITLE9=Sandra Laratta - Better Than Beautiful
TTITLE10=Martina Mcbride - Wrong Baby Wrong Baby Wrong
TTITLE11=Jason Blaine  - Numb
TTITLE12=Jason Greenley - Goodbye Jersey
TTITLE13=Luke Bryan - Rain Is A Good Thing
TTITLE14=Jo Dee Messina - That's God
TTITLE15=Jack Ingram - Free
TTITLE16=Jo Hikk - Shame On The Moon
TTITLE17=Hey Romeo - Searching For You
TTITLE18=Wilsons, The - Mine All Mine
TTITLE19=Alex J. Robinson - Into The Sun
TTITLE20=Easton Corbin - A Little More Country Than That
TTITLE21=Sarah Buxton - Outside My Window
EXTD=
EXTT0=
EXTT1=
EXTT2=
EXTT3=
EXTT4=
EXTT5=
EXTT6=
EXTT7=
EXTT8=
EXTT9=
EXTT10=
EXTT11=
EXTT12=
EXTT13=
EXTT14=
EXTT15=
EXTT16=
EXTT17=
EXTT18=
EXTT19=
EXTT20=
EXTT21=
PLAYORDER=
